<svg width="74" height="75" viewBox="0 0 74 75" fill="none" xmlns="http://www.w3.org/2000/svg">
<path d="M72.4005 0.971164C57.1742 0.698115 39.8095 8.65881 28.818 21.0078C18.314 21.2061 8.08623 25.5131 0.555982 33.0447C0.117232 33.4771 -0.0387682 34.1239 0.152982 34.709C0.347982 35.2974 0.854982 35.7232 1.46598 35.811L13.9915 37.6053L12.4445 39.3379C11.8692 39.9815 11.8985 40.9599 12.5095 41.571L33.3972 62.4626C33.7125 62.7779 34.1285 62.9372 34.5477 62.9372C34.9345 62.9372 35.3212 62.8006 35.63 62.5243L37.3622 60.977L39.1562 73.5048C39.244 74.1159 39.725 74.5645 40.3067 74.7595C40.4562 74.8083 40.6122 74.8311 40.7715 74.8311C41.233 74.8311 41.7042 74.6295 42.0292 74.3077C49.4555 66.8801 53.7617 56.6505 53.96 46.1446C66.3197 35.1284 74.344 17.767 73.9897 2.55745C73.967 1.6928 73.2682 0.993918 72.4005 0.971164ZM57.4245 29.0303C55.8417 30.6133 53.7617 31.4064 51.6785 31.4064C49.5952 31.4064 47.5152 30.6133 45.9325 29.0303C42.767 25.8609 42.767 20.7055 45.9325 17.5362C49.1012 14.3668 54.2557 14.3668 57.4245 17.5362C60.5932 20.7055 60.5932 25.8642 57.4245 29.0303Z" fill="url(#paint0_linear)"/>
<defs>
<linearGradient id="paint0_linear" x1="37.0366" y1="0.964355" x2="37.0366" y2="74.8311" gradientUnits="userSpaceOnUse">
<stop stop-color="#C972FF"/>
<stop offset="1" stop-color="#4383FF"/>
</linearGradient>
</defs>
</svg>
