<svg width="87" height="88" viewBox="0 0 87 88" fill="none" xmlns="http://www.w3.org/2000/svg">
<path d="M14.5012 79.9275C23.0882 80.6389 25.6522 76.2712 28.2428 71.8581C30.6687 67.7257 33.1179 63.5535 40.5573 63.4746L47.22 69.0362C48.8802 89.1146 24.3284 93.5922 14.5012 79.9275ZM65.4861 54.1315C70.6589 46.0139 86.6811 18.7859 86.6811 18.7859C87.9571 16.5272 85.1224 14.1705 83.1432 15.8383C83.1432 15.8383 59.32 36.5548 52.2913 43.1207C47.2534 47.8305 46.7648 50.2191 45.3753 57.0124C45.2331 57.7076 45.0814 58.4489 44.9145 59.2436L51.0044 64.3194C51.7578 64.0098 52.4611 63.7252 53.1205 63.4583C59.5262 60.8661 61.782 59.9532 65.4861 54.1315ZM21.9903 68.1842L21.9915 68.1823C24.4058 64.0708 28.3283 57.3908 38.1105 56.3576C38.1842 56.0029 38.2559 55.6552 38.3262 55.3139C39.7566 48.374 40.6405 44.0853 47.3432 37.8237C52.3203 33.1758 65.2432 21.8386 72.794 15.2401C69.169 7.23483 57.7831 0.654423 43.1492 0.774067C19.1375 0.973473 -0.190702 20.5878 0.00141994 44.6144C0.0847937 55.1685 3.91999 64.8125 10.2238 72.2956C16.0889 73.851 18.8366 73.5573 21.9903 68.1842ZM47.191 10.7734C51.1857 10.7516 54.459 13.9675 54.4989 17.9629C54.5134 21.9619 51.3017 25.2466 47.2997 25.272C43.2942 25.3047 40.0208 22.0815 39.9991 18.0789C39.952 14.069 43.1745 10.806 47.191 10.7734ZM25.4522 18.0281C29.4469 17.9919 32.7311 21.2078 32.7456 25.2176C32.7891 29.2275 29.5556 32.4869 25.5682 32.5268C21.559 32.5522 18.2856 29.3327 18.2603 25.3192C18.2276 21.3202 21.4394 18.0535 25.4522 18.0281ZM18.1914 39.7743C22.2006 39.7489 25.4775 42.972 25.4993 46.9711C25.5355 50.9737 22.3093 54.2512 18.3001 54.2766C14.2946 54.3056 11.0321 51.0861 11.0104 47.0798C10.9705 43.0736 14.1967 39.8142 18.1914 39.7743ZM54.5532 70.7076C54.6294 78.8253 51.356 84.1875 48.4561 87.3381L48.2893 87.4976C67.3384 85.3549 81.1386 71.8932 71.0032 58.8955C66.2662 65.9592 62.2253 67.5971 55.5833 70.2894C55.2468 70.4258 54.9036 70.565 54.5532 70.7076Z" fill="url(#paint0_linear)"/>
<path d="M14.5012 79.9275C23.0882 80.6389 25.6522 76.2712 28.2428 71.8581C30.6687 67.7257 33.1179 63.5535 40.5573 63.4746L47.22 69.0362C48.8802 89.1146 24.3284 93.5922 14.5012 79.9275ZM65.4861 54.1315C70.6589 46.0139 86.6811 18.7859 86.6811 18.7859C87.9571 16.5272 85.1224 14.1705 83.1432 15.8383C83.1432 15.8383 59.32 36.5548 52.2913 43.1207C47.2534 47.8305 46.7648 50.2191 45.3753 57.0124C45.2331 57.7076 45.0814 58.4489 44.9145 59.2436L51.0044 64.3194C51.7578 64.0098 52.4611 63.7252 53.1205 63.4583C59.5262 60.8661 61.782 59.9532 65.4861 54.1315ZM21.9903 68.1842L21.9915 68.1823C24.4058 64.0708 28.3283 57.3908 38.1105 56.3576C38.1842 56.0029 38.2559 55.6552 38.3262 55.3139C39.7566 48.374 40.6405 44.0853 47.3432 37.8237C52.3203 33.1758 65.2432 21.8386 72.794 15.2401C69.169 7.23483 57.7831 0.654423 43.1492 0.774067C19.1375 0.973473 -0.190702 20.5878 0.00141994 44.6144C0.0847937 55.1685 3.91999 64.8125 10.2238 72.2956C16.0889 73.851 18.8366 73.5573 21.9903 68.1842ZM47.191 10.7734C51.1857 10.7516 54.459 13.9675 54.4989 17.9629C54.5134 21.9619 51.3017 25.2466 47.2997 25.272C43.2942 25.3047 40.0208 22.0815 39.9991 18.0789C39.952 14.069 43.1745 10.806 47.191 10.7734ZM25.4522 18.0281C29.4469 17.9919 32.7311 21.2078 32.7456 25.2176C32.7891 29.2275 29.5556 32.4869 25.5682 32.5268C21.559 32.5522 18.2856 29.3327 18.2603 25.3192C18.2276 21.3202 21.4394 18.0535 25.4522 18.0281ZM18.1914 39.7743C22.2006 39.7489 25.4775 42.972 25.4993 46.9711C25.5355 50.9737 22.3093 54.2512 18.3001 54.2766C14.2946 54.3056 11.0321 51.0861 11.0104 47.0798C10.9705 43.0736 14.1967 39.8142 18.1914 39.7743ZM54.5532 70.7076C54.6294 78.8253 51.356 84.1875 48.4561 87.3381L48.2893 87.4976C67.3384 85.3549 81.1386 71.8932 71.0032 58.8955C66.2662 65.9592 62.2253 67.5971 55.5833 70.2894C55.2468 70.4258 54.9036 70.565 54.5532 70.7076Z" stroke="black"/>
<defs>
<linearGradient id="paint0_linear" x1="43.5" y1="0.772461" x2="43.5" y2="87.7881" gradientUnits="userSpaceOnUse">
<stop stop-color="#C972FF"/>
<stop offset="1" stop-color="#4383FF"/>
</linearGradient>
</defs>
</svg>
