<svg width="84" height="94" viewBox="0 0 84 94" fill="none" xmlns="http://www.w3.org/2000/svg">
<path d="M36.3824 47.3853L6.3668 31.0729C5.03167 30.3476 3.45505 30.3776 2.14857 31.1542C0.842089 31.9307 0.0625 33.3016 0.0625 34.8215V72.6627C0.0625 74.1938 0.889288 75.6151 2.22038 76.3719L32.2365 93.436C32.8982 93.8121 33.6218 94 34.3455 94C35.0831 94 35.8204 93.8048 36.4909 93.4145C37.8189 92.6419 38.6117 91.2633 38.6117 89.7267V51.1341C38.6117 49.5692 37.7577 48.1327 36.3824 47.3853Z" fill="url(#paint0_linear)"/>
<path d="M78.4909 21.2299C78.4889 19.6321 77.6063 18.1829 76.1879 17.4478L43.4569 0.478816C42.2176 -0.163955 40.7406 -0.159181 39.5059 0.490753L7.2562 17.4597C5.85202 18.1989 4.97859 19.6437 4.97657 21.2306C4.97473 22.8171 5.84467 24.2639 7.24683 25.0062L39.4967 42.0812C40.1211 42.4116 40.8067 42.5769 41.4926 42.5769C42.1701 42.5769 42.8477 42.4156 43.4659 42.0929L76.1977 25.0184C77.6143 24.2794 78.4931 22.8276 78.4909 21.2299Z" fill="url(#paint1_linear)"/>
<path d="M81.8509 31.1543C80.5451 30.3776 78.9677 30.347 77.6332 31.0727L47.6166 47.3854C46.2417 48.1328 45.3877 49.5691 45.3877 51.134V89.7266C45.3877 91.2631 46.1805 92.6418 47.5085 93.4144C48.179 93.8047 48.9161 93.9997 49.6539 93.9997C50.3774 93.9997 51.1014 93.8118 51.7629 93.4359L81.7792 76.3718C83.1103 75.615 83.9369 74.1937 83.9369 72.6626V34.8216C83.9369 33.3017 83.1573 31.9308 81.8509 31.1543Z" fill="url(#paint2_linear)"/>
<defs>
<linearGradient id="paint0_linear" x1="19.3371" y1="30.5496" x2="19.3371" y2="94" gradientUnits="userSpaceOnUse">
<stop stop-color="#C972FF"/>
<stop offset="1" stop-color="#4383FF"/>
</linearGradient>
<linearGradient id="paint1_linear" x1="41.7337" y1="0" x2="41.7337" y2="42.5769" gradientUnits="userSpaceOnUse">
<stop stop-color="#C972FF"/>
<stop offset="1" stop-color="#4383FF"/>
</linearGradient>
<linearGradient id="paint2_linear" x1="64.6623" y1="30.5493" x2="64.6623" y2="93.9997" gradientUnits="userSpaceOnUse">
<stop stop-color="#C972FF"/>
<stop offset="1" stop-color="#4383FF"/>
</linearGradient>
</defs>
</svg>
