<svg width="50" height="51" viewBox="0 0 50 51" fill="none" xmlns="http://www.w3.org/2000/svg">
<path d="M25 50.9805C38.8104 50.9805 50 39.7891 50 25.9766C50 12.164 38.8104 0.972656 25 0.972656C11.1896 0.972656 0 12.164 0 25.9766C0 39.7891 11.1896 50.9805 25 50.9805ZM11.4396 25.4348L35.5438 16.1396C36.6625 15.7354 37.6396 16.4126 37.2771 18.1045L37.2792 18.1024L33.175 37.4409C32.8708 38.8119 32.0562 39.1453 30.9167 38.4994L24.6667 33.8924L21.6521 36.797C21.3187 37.1304 21.0375 37.4117 20.3917 37.4117L20.8354 31.0503L32.4187 20.5841C32.9229 20.1402 32.3062 19.8902 31.6417 20.3319L17.3271 29.3458L11.1562 27.4205C9.81667 26.9955 9.7875 26.0807 11.4396 25.4348Z" fill="white"/>
</svg>
