<svg width="50" height="50" viewBox="0 0 50 50" fill="none" xmlns="http://www.w3.org/2000/svg">
<path fill-rule="evenodd" clip-rule="evenodd" d="M25 0C38.8071 0 50 11.1929 50 25C50 38.8071 38.8071 50 25 50C11.1929 50 0 38.8071 0 25C0 11.1929 11.1929 0 25 0ZM26.4973 10.1835C28.1972 10.3956 29.5709 10.8051 31.0781 11.5403C32.5605 12.2656 33.5093 12.9514 34.7645 14.1997C35.9405 15.379 36.5928 16.2721 37.2846 17.6585C38.2482 19.5927 38.7968 21.8919 38.8906 24.4231C38.9253 25.2865 38.9005 25.479 38.7028 25.7257C38.3273 26.2043 37.502 26.1253 37.2204 25.5875C37.1314 25.4099 37.1067 25.257 37.077 24.5662C37.0276 23.5054 36.9536 22.8196 36.8053 22.0005C36.2222 18.7885 34.6804 16.2227 32.2195 14.3823C30.1688 12.8429 28.0489 12.0929 25.2718 11.9301C24.3329 11.8758 24.1698 11.8413 23.9574 11.6785C23.5619 11.3676 23.5423 10.6374 23.9227 10.297C24.155 10.0848 24.318 10.0552 25.1235 10.0798C25.5436 10.0946 26.1613 10.144 26.4973 10.1835ZM15.201 10.7164C15.374 10.7756 15.6408 10.9137 15.794 11.0124C16.7328 11.6341 19.3469 14.9744 20.2018 16.6421C20.691 17.5944 20.8541 18.2999 20.701 18.823C20.5427 19.3854 20.2809 19.6815 19.1098 20.6239C18.6403 21.0038 18.2004 21.3936 18.1313 21.4972C17.9534 21.7538 17.8101 22.257 17.8101 22.6123C17.8151 23.4363 18.3488 24.9313 19.0505 26.081C19.594 26.974 20.5674 28.1187 21.531 28.997C22.6626 30.0332 23.6608 30.7386 24.7875 31.2962C26.2353 32.0166 27.1199 32.1991 27.7673 31.8982C27.9303 31.8242 28.1033 31.7255 28.1577 31.6811C28.207 31.6367 28.5876 31.1729 29.0027 30.6598C29.8032 29.6532 29.986 29.4904 30.5345 29.3029C31.2313 29.0661 31.9429 29.1302 32.6594 29.4953C33.203 29.7766 34.3889 30.5117 35.1548 31.0446C36.1629 31.7502 38.3174 33.5067 38.609 33.8571C39.1229 34.4886 39.2119 35.2977 38.8659 36.1909C38.5002 37.1332 37.0771 38.8996 36.0838 39.6545C35.1845 40.3354 34.547 40.5969 33.707 40.6364C33.0152 40.6709 32.7286 40.6117 31.844 40.2466C24.9062 37.3898 19.3667 33.1268 14.9687 27.27C12.6709 24.2109 10.9216 21.0384 9.72572 17.7474C9.02901 15.8281 8.99447 14.9941 9.56761 14.0123C9.81474 13.5978 10.8673 12.5715 11.6332 11.9992C12.9081 11.0519 13.4962 10.7015 13.9656 10.6029C14.2868 10.5338 14.8451 10.5881 15.201 10.7164ZM26.8382 13.7606C29.8378 14.1997 32.1603 15.5912 33.6823 17.851C34.5372 19.1239 35.0708 20.6189 35.2537 22.2225C35.3179 22.8097 35.3179 23.8804 35.2487 24.058C35.1844 24.2257 34.9769 24.4527 34.799 24.5464C34.6063 24.6451 34.1962 24.6353 33.9689 24.5168C33.5883 24.3244 33.4747 24.0185 33.4747 23.1896C33.4747 21.9117 33.1436 20.5647 32.5705 19.5186C31.9182 18.3246 30.9694 17.3378 29.8131 16.652C28.8198 16.0599 27.3522 15.6208 26.0131 15.5123C25.5287 15.4727 25.2619 15.3741 25.0791 15.1619C24.7974 14.8412 24.7677 14.407 25.0049 14.0468C25.2619 13.6472 25.6572 13.583 26.8382 13.7606ZM27.8908 17.4858C28.8643 17.6931 29.6105 18.0631 30.2479 18.6602C31.0682 19.4347 31.5179 20.3722 31.7155 21.7192C31.8489 22.5975 31.7946 22.9429 31.4833 23.229C31.1917 23.4955 30.6532 23.5053 30.327 23.2537C30.0898 23.076 30.0156 22.8886 29.9613 22.3804C29.8971 21.7044 29.7785 21.2308 29.5759 20.7916C29.141 19.8591 28.3751 19.3756 27.0804 19.2177C26.4725 19.1437 26.2897 19.0746 26.0921 18.8427C25.7314 18.4135 25.8697 17.7177 26.3688 17.4612C26.5566 17.3674 26.6357 17.3576 27.0507 17.3822C27.3077 17.397 27.6882 17.4414 27.8908 17.4858Z" fill="white"/>
</svg>
